<?xml version="1.0" standalone="no"?>
<!DOCTYPE svg PUBLIC "-//W3C//DTD SVG 20010904//EN"
 "http://www.w3.org/TR/2001/REC-SVG-20010904/DTD/svg10.dtd">
<svg version="1.0" xmlns="http://www.w3.org/2000/svg"
 width="900.000000pt" height="1012.000000pt" viewBox="0 0 900.000000 1012.000000"
 preserveAspectRatio="xMidYMid meet">

<g transform="translate(0.000000,1012.000000) scale(0.100000,-0.100000)"
fill="#000000" stroke="none">
<path d="M6260 9925 c-411 -70 -867 -309 -1156 -606 -302 -312 -504 -678 -585
-1059 -19 -88 -22 -138 -23 -315 l-1 -210 145 0 c168 0 227 7 359 41 275 72
521 222 766 468 321 322 533 705 621 1121 22 101 27 156 31 348 l6 227 -44 -1
c-24 -1 -78 -7 -119 -14z"/>
<path d="M6200 7632 c-306 -22 -518 -75 -967 -241 -278 -103 -481 -170 -594
-196 -116 -26 -268 12 -734 187 -476 179 -702 231 -975 223 -388 -12 -748
-125 -1116 -350 -566 -347 -991 -989 -1143 -1729 -16 -78 -34 -184 -41 -236
-6 -52 -13 -108 -16 -125 -3 -16 -8 -166 -11 -333 -7 -401 13 -653 78 -1007
96 -518 299 -1126 530 -1588 152 -304 235 -443 428 -722 413 -597 710 -901
1036 -1061 144 -70 239 -95 385 -99 204 -6 396 40 766 186 254 99 425 147 654
184 67 10 306 13 380 4 204 -25 420 -83 659 -179 479 -191 748 -228 1036 -145
336 98 611 331 991 840 287 386 490 728 667 1125 58 130 197 497 197 519 0 5
-25 21 -55 35 -31 14 -99 51 -153 82 -461 270 -800 671 -956 1135 -82 244
-116 460 -116 735 0 182 12 305 46 466 79 375 237 669 513 952 126 129 227
214 366 308 50 34 94 65 99 69 12 10 -106 165 -207 275 -222 237 -515 425
-856 545 -143 50 -299 87 -531 123 -19 3 -84 9 -145 12 -60 3 -126 6 -145 7
-19 1 -51 1 -70 -1z"/>
</g>
</svg>
