<svg width="28" height="28" viewBox="0 0 28 28" fill="none" xmlns="http://www.w3.org/2000/svg">
<path d="M5.35696 1.06569C3.6586 0.362122 1.8383 0 0 0V14C0 15.8385 0.362079 17.659 1.06557 19.3576C1.76905 21.0561 2.80017 22.5995 4.10004 23.8995C5.39991 25.1995 6.94309 26.2307 8.64145 26.9343C10.3398 27.6379 12.1601 28 13.9984 28C15.8367 28 17.657 27.6379 19.3554 26.9343C19.9211 26.7 20.4696 26.4293 20.9976 26.1244C19.947 25.5178 18.9711 24.7722 18.0985 23.8995C15.4732 21.274 13.9984 17.713 13.9984 14C13.9984 12.1615 13.6363 10.341 12.9328 8.64243C12.2294 6.94387 11.1982 5.40053 9.89837 4.10051C8.5985 2.80048 7.05533 1.76925 5.35696 1.06569Z" fill="#664DE5"/>
<path d="M27.9968 14C28.004 13.8842 27.9968 13.7675 27.9968 13.65C27.9968 10.5572 25.4899 8.05 22.3975 8.05C19.305 8.05 16.7981 10.5572 16.7981 13.65C16.7981 13.7675 16.791 13.8842 16.7981 14C16.7981 16.9704 17.978 19.8192 20.0781 21.9196C21.0776 22.9192 22.2465 23.7103 23.5173 24.265C23.646 24.1456 23.7725 24.0238 23.8968 23.8995C25.1967 22.5995 26.2278 21.0561 26.9313 19.3576C27.6347 17.659 27.9968 15.8385 27.9968 14Z" fill="#664DE5"/>
</svg>
